<svg version="1.2" xmlns="http://www.w3.org/2000/svg" viewBox="0 0 28 36" width="28" height="36"><style>.a{fill:none;stroke:#20808d;stroke-miterlimit:10}.b{fill:#13343b}</style><path class="a" d="m23.6 1.4l-9.5 9.5h9.5v-9.5 2.6zm-9.5 9.5l-9.5-9.5v9.5zm0-10.9v36m9.5-15.6l-9.5-9.5v13.6l9.5 9.5zm-19 0l9.5-9.5v13.7l-9.5 9.5zm-4.1-9.5v13.5h4.1v-4l9.5-9.5zm13.5 0l9.5 9.5v4h4.1v-13.5z"/><path class="b" d="m55.5 13q0.8-1.6 2.5-2.5 1.6-0.9 3.7-0.9 2.1 0 3.6 0.9 1.5 0.8 2.3 2.3 0.7 1.5 0.7 3.2v1.6h-11.2q0.2 2.1 1.4 3.3 1.3 1.3 3.5 1.3 1.7 0 2.7-0.7 0.9-0.7 1.3-2h2.6q-0.5 2-2.1 3.4-1.6 1.4-4.5 1.4-2.2 0-3.9-0.9-1.7-0.9-2.6-2.5-0.9-1.7-0.9-4 0-2.2 0.9-3.9 0 0 0 0zm10.1 2.6q0-1.8-0.9-2.9-1-1-3-1-1.9 0-3.1 1-1.2 1-1.4 2.9zm6-5.6v2.2q0 0.2 0.2 0.2 0.1 0 0.2-0.1 0 0 0.1-0.2 0.7-2.2 3.4-2.2h1.2v2.4h-1.5q-1.8 0-2.7 0.9-0.9 0.8-0.9 2.8v7.9h-2.4v-13.9c0 0 2.4 0 2.4 0zm19.3 11q-0.9 1.7-2.4 2.5-1.6 0.8-3.3 0.8-3.4 0-4.8-2.7-0.2-0.2-0.3-0.2-0.2 0-0.2 0.1v7.5h-2.4v-19h2.4v2.4q0 0.1 0.2 0.1 0.1 0 0.3-0.2 1.4-2.7 4.8-2.7 1.7 0 3.3 0.8 1.5 0.8 2.4 2.5 1 1.7 1 4 0 2.4-1 4.1zm-2.8-7.9q-1.3-1.4-3.5-1.4-2.1 0-3.5 1.4c-0.9 0.9-1.2 2.2-1.2 3.8 0 1.7 0.3 3 1.2 3.9q1.4 1.4 3.5 1.4 2.2 0 3.5-1.4 1.4-1.4 1.4-3.9 0-2.4-1.4-3.8zm7.3-8.5v19.3h-2.4v-19.3c0 0 2.4 0 2.4 0zm2 8.4q0.9-1.6 2.5-2.5 1.6-0.9 3.8-0.9 2.1 0 3.6 0.9 1.5 0.8 2.2 2.3 0.8 1.5 0.8 3.2v1.6h-11.2q0.1 2.1 1.4 3.3 1.3 1.3 3.4 1.3 1.8 0 2.7-0.7 0.9-0.7 1.4-2h2.5q-0.5 2-2.1 3.4-1.5 1.4-4.5 1.4-2.2 0-3.9-0.9-1.6-0.9-2.6-2.5-0.9-1.7-0.9-4 0-2.2 0.9-3.9 0 0 0 0zm10.2 2.6q0-1.8-1-2.9-0.9-1-2.9-1-1.9 0-3.1 1-1.2 1-1.5 2.9zm1.6 7.8l5.6-6.9-4.6-6v-0.5h2.7l3.8 5.2 4.1-5.2h2.7v0.5l-5.2 6.4 4.8 6.5v0.5h-2.6l-4.1-5.6-4.5 5.6h-2.7v-0.5zm17.8-18v3h-2.8v-3zm-0.2 18.5h-2.4v-13.9h2.4zm0.8-14h2.6v-3.7h2.5v3.7h2.7l0.7 2.1h-3.4v6.6q0 1.4-0.1 2.1-0.1 0.6-0.1 0.8 0 0.1 0.1 0.2 0.1 0.2 0.3 0.2 0.2 0 0.8-0.1 0.7-0.1 2.1-0.1h0.9v2.2h-1.9q-2.3 0-3.4-1.2-1.2-1.1-1.2-3.4v-7.3h-2.6v-2.1q0 0 0 0zm8.6 0h2.4l4 11.7c0.1 0.2 0.2 0.4 0.5 0.4 0.2 0 0.3-0.2 0.4-0.4l4-11.7h2.3v0.5l-5 15.1q-0.7 1.9-1.8 2.7c-0.8 0.5-1.7 0.8-3.2 0.8h-2.6v-2.2h1.9q1 0 1.6 0.1 0.6 0.1 0.7 0.1 0.5 0 0.6-0.4l0.8-2.1q0.1-0.3 0-0.5 0-0.1-0.1-0.1-0.1 0-0.3 0h-1.6l-4.6-14q0 0 0 0zm-83.2 11.1q-1 1.6-2.5 2.5-1.5 0.8-3.2 0.8-3.5 0-4.9-2.7-0.1-0.3-0.3-0.3-0.1 0-0.1 0.2v7.5h-2.4v-19.1h2.4v2.4q0 0.2 0.1 0.2 0.2 0 0.3-0.2 1.4-2.8 4.9-2.8 1.7 0 3.2 0.9 1.5 0.8 2.5 2.5 1 1.6 1 4 0 2.4-1 4.1zm-2.8-7.9q-1.3-1.4-3.5-1.4-2.2 0-3.5 1.4c-0.9 0.9-1.2 2.2-1.2 3.8 0 1.7 0.3 2.9 1.2 3.9q1.3 1.3 3.5 1.3 2.2 0 3.5-1.3 1.3-1.4 1.3-3.9 0-2.5-1.3-3.8z"/></svg>